# xmcd
#
# Track frame offsets: 
#        150
#        18375
#        46200
#        72150
#        89550
#        113100
#        135225
#        154350
#        170325
#
# Disc length: 2521 seconds
#
# Revision: 0
# Processed by: cddbd v1.5.2PL0 Copyright (c) Steve Scherf et al.
# Submitted via: ExactAudioCopy v0.99pb5
#
DISCID=6f09d709
DTITLE=Мираж - Promo
DYEAR=1988
DGENRE=Disco
TTITLE0=Я больше не прошу
TTITLE1=Снова вместе
TTITLE2=Наступает ночь
TTITLE3=Новый герой
TTITLE4=Мой путь
TTITLE5=Ночная даль
TTITLE6=Ты уходишь
TTITLE7=Верю и люблю
TTITLE8=Солнце горит
EXTD=
EXTT0=
EXTT1=
EXTT2=
EXTT3=
EXTT4=
EXTT5=
EXTT6=
EXTT7=
EXTT8=
PLAYORDER=
